<svg xmlns="http://www.w3.org/2000/svg" width="80" height="80" viewBox="0 0 80 80" fill="none"><g clip-path="url(#clip0_2668_1101)"><mask id="mask0_2668_1101" style="mask-type:luminance" maskUnits="userSpaceOnUse" x="0" y="0" width="80" height="80"><path d="M80 0H0V80H80V0Z" fill="white"></path></mask><g mask="url(#mask0_2668_1101)"><path fill-rule="evenodd" clip-rule="evenodd" d="M79.5785 66.5263C79.5785 73.8246 73.6838 79.5789 66.3855 79.5789H13.4733C6.17501 79.5789 0.280273 73.6842 0.280273 66.5263V13.4737C0.280273 6.31579 6.17501 0.421051 13.4733 0.421051H66.3855C73.6838 0.421051 79.5785 6.31579 79.5785 13.4737V66.5263Z" fill="#F3CC23"></path><path d="M79.5785 66.5263C79.5785 73.8246 73.6838 79.5789 66.3855 79.5789H13.4733C6.17501 79.5789 0.280273 73.6842 0.280273 66.5263V13.4737C0.280273 6.31579 6.17501 0.421051 13.4733 0.421051H66.3855C73.6838 0.421051 79.5785 6.31579 79.5785 13.4737V66.5263Z" stroke="#24211E" stroke-width="0.32" stroke-miterlimit="10"></path><path d="M15.7189 3.50876H63.9996C70.5961 3.50876 75.9294 8.84209 75.9294 15.4386V64C75.9294 70.5965 70.5961 75.9298 63.9996 75.9298H15.7189C9.1224 75.9298 3.78906 70.5965 3.78906 64V15.4386C3.78906 8.84209 9.1224 3.50876 15.7189 3.50876Z" stroke="#24211E" stroke-width="0.32" stroke-miterlimit="10"></path><path d="M3.78906 53.4737H76.0698" stroke="#24211E" stroke-width="0.32" stroke-miterlimit="10"></path><path d="M4.35059 68.2105H75.2278" stroke="#24211E" stroke-width="0.32" stroke-miterlimit="10"></path><path fill-rule="evenodd" clip-rule="evenodd" d="M38.8769 13.4737C38.8769 13.4737 39.5787 14.5965 38.0348 17.4035C38.0348 17.4035 56.9822 22.0351 58.526 22.5965C60.0699 23.0175 74.105 28.4912 74.2453 29.3333C74.3857 30.1754 58.526 23.5789 58.526 23.5789L45.0523 19.9298L38.3155 18.1052L36.912 17.9649C36.912 17.9649 39.9997 15.4386 38.0348 12.0702C38.0348 12.0702 37.0523 12.6316 37.0523 12.7719C37.0523 12.7719 36.2102 12.9123 35.3681 13.8947C35.3681 13.8947 34.8067 12.9123 34.2453 13.7544H33.6839L34.105 12.9123C34.105 12.9123 34.3857 12.4912 32.8418 13.0526C31.298 13.614 31.5787 13.4737 31.5787 13.4737C31.5787 13.4737 31.298 12.0702 30.5962 12.2105C30.0348 12.3509 29.8944 13.614 29.8944 13.614C29.8944 13.614 29.1927 14.1754 29.333 14.8772C29.333 14.8772 27.6488 14.7368 25.8243 16.421C25.8243 16.421 25.8243 16.9824 26.6664 16.8421C26.6664 16.8421 28.2102 16.1403 27.3681 17.4035C27.3681 17.4035 26.8067 18.6666 26.2453 19.2281C25.6839 19.7895 23.298 21.3333 23.298 21.3333C23.298 21.4737 22.8769 21.3333 23.0173 22.7368C23.0173 22.7368 21.8944 24.421 21.0523 24.9824C20.2102 25.5438 14.7366 31.7193 14.7366 31.7193L12.3506 34.807C12.3506 34.807 11.2278 35.9298 12.3506 38.0351C12.3506 38.0351 12.0699 39.7193 13.0523 40.8421C13.0523 40.8421 13.1927 42.1052 13.1927 42.3859C13.1927 42.6666 13.7541 43.3684 14.8769 42.1052C14.8769 42.1052 16.7015 41.1228 17.8243 40C17.8243 40 18.8067 38.0351 19.2278 39.2982C19.2278 39.2982 19.2278 40.421 18.526 41.2631C17.8243 42.1052 17.1225 42.2456 17.1225 43.6491C17.1225 45.0526 17.8243 45.193 18.6664 44.0702C18.6664 44.0702 22.4559 43.9298 22.8769 39.7193C22.8769 39.7193 23.5787 39.7193 23.8594 39.1579C23.8594 39.1579 26.9471 38.0351 28.3506 36.7719C28.3506 36.7719 29.0523 36.2105 29.7541 36.6316C29.7541 36.6316 32.4208 36.7719 34.105 36.6316C35.7892 36.3509 36.0699 36.3509 36.7716 35.6491C37.4734 34.9473 39.298 34.1052 39.298 34.1052C39.298 34.1052 41.2629 33.2631 40.1401 34.1052C40.1401 34.1052 38.8769 34.5263 39.8594 34.807C40.8418 35.0877 46.3155 37.193 49.9646 40.1403C49.9646 40.1403 52.0699 41.5438 53.4734 43.0877C54.8769 44.4912 63.9997 52.2105 64.4208 52.2105C64.4208 52.2105 66.526 53.7544 67.2278 53.8947C67.7892 54.0351 76.0699 53.8947 76.0699 53.8947V23.0175C76.0699 23.0175 74.8067 22.3158 73.5436 22.4561C73.5436 22.4561 73.4032 22.3158 74.105 21.7544C74.8067 21.3333 72.7015 21.4737 72.2804 21.4737C71.8594 21.4737 69.6138 21.0526 69.4734 21.0526C69.333 21.0526 70.3155 20.2105 71.4383 19.7895C72.5611 19.3684 74.2453 19.3684 74.3857 19.3684C74.6664 19.3684 74.105 18.6667 70.8769 18.6667C67.6488 18.807 67.6488 18.807 67.6488 18.807C67.6488 18.807 66.3857 18.807 66.3857 18.3859C66.3857 17.9649 67.5085 17.8245 67.7892 17.8245C68.0699 17.8245 68.7716 17.8245 68.7716 17.8245C68.7716 17.8245 70.0348 17.5438 67.5085 17.4035H65.8243C65.8243 17.4035 64.9822 17.2631 65.9646 16.9824C65.9646 16.9824 66.8067 17.1228 66.9471 16C66.9471 16 66.2453 16.5614 64.2804 16.2807C64.2804 16.2807 58.2453 16.2807 57.5436 16.2807C56.8418 16.2807 55.298 16.1403 56.9822 15.4386C58.6664 14.7368 58.8067 14.8772 58.8067 14.8772C58.8067 14.8772 59.3681 14.7368 59.3681 14.8772C59.3681 15.0175 59.6488 14.0351 57.6839 14.3158C55.8594 14.5965 54.3155 14.5965 54.3155 14.5965C54.3155 14.5965 52.4909 14.7368 51.5085 15.1579C50.526 15.5789 48.9822 15.2982 48.9822 15.2982C48.9822 15.2982 48.4208 15.2982 49.2629 14.8772C49.2629 14.8772 50.105 14.5965 50.2453 14.0351C50.2453 14.0351 46.0348 14.0351 45.4734 14.0351C45.0523 13.8947 41.9646 13.614 41.6839 13.614C41.5436 13.614 42.6664 12.9123 42.3857 12.6316C42.105 12.3509 40.7015 13.0526 40.2804 13.193C39.8594 12.9123 38.8769 13.4737 38.8769 13.4737Z" fill="#24211E"></path><path fill-rule="evenodd" clip-rule="evenodd" d="M36.21 13.7544C36.21 13.7544 36.0697 14.3158 35.9293 14.3158C35.789 14.3158 34.5258 15.579 34.5258 15.7193C34.5258 15.8597 34.2451 15.8597 34.2451 15.8597L34.3855 16.2807C34.3855 16.2807 34.9469 16.4211 34.8065 16.8421C34.8065 16.8421 35.0872 16.9825 35.0872 16.8421C35.0872 16.7018 35.0872 16.5614 34.9469 16.4211C34.8065 16.2807 34.9469 15.579 35.0872 15.4386C35.3679 15.2983 35.9293 14.5965 35.9293 14.5965C35.9293 14.5965 36.9118 13.8947 36.21 13.7544Z" fill="#F3CC23"></path><path fill-rule="evenodd" clip-rule="evenodd" d="M32.4209 15.1579C32.4209 15.1579 31.8595 15.1579 31.7191 15.579C31.5788 16 31.2981 15.1579 30.456 17.1228C30.456 17.1228 29.0525 17.6842 28.9121 19.3684V20.4912C28.9121 20.4912 29.0525 22.1754 29.3332 20.4912V18.807C29.3332 18.807 29.4735 17.8246 30.3156 17.4035C31.0174 16.9825 30.877 17.1228 30.877 17.1228C30.877 17.1228 31.0174 17.2632 31.1577 16.8421C31.1577 16.4211 31.2981 16.4211 31.2981 16.4211L31.5788 16.1404C31.5788 16.1404 31.9998 16.1404 31.9998 15.8597C32.1402 15.579 32.1402 15.579 32.1402 15.579H32.4209" fill="#F3CC23"></path><path fill-rule="evenodd" clip-rule="evenodd" d="M24.2806 22.8772L23.9999 23.2982C23.9999 23.2982 23.8595 24.2807 23.9999 24.4211C24.1402 24.5614 24.5613 24.7018 24.4209 23.579L24.5613 23.4386H24.7016V23.1579V22.8772V22.7368H24.5613" fill="#F3CC23"></path><path fill-rule="evenodd" clip-rule="evenodd" d="M25.1222 24.2807L25.2626 24.4211V24.5614H25.4029H25.6836V24.7018L25.5433 24.8421C25.5433 24.8421 25.5433 24.8421 25.4029 24.8421H25.1222H24.8415V24.7018L24.7012 24.5614V24.4211V24.1404L25.1222 24.2807Z" fill="#F3CC23"></path><path fill-rule="evenodd" clip-rule="evenodd" d="M24.4203 25.6842C24.4203 25.6842 23.5782 24.7017 23.1571 25.6842L22.7361 26.1053L22.5957 26.386V26.6667H22.7361H22.8764H23.0168L23.1571 26.5263L23.2975 26.386V26.2456L23.4378 26.1053L23.5782 25.9649V25.8246V25.6842H23.7185L23.8589 25.8246H23.9992H24.1396H24.2799L24.4203 25.6842Z" fill="#F3CC23"></path><path fill-rule="evenodd" clip-rule="evenodd" d="M20.2098 35.5088C20.2098 35.5088 19.087 36.2105 18.9466 36.2105C18.6659 36.2105 18.6659 36.7719 19.087 36.9123C19.508 36.9123 19.508 37.614 19.508 37.8947C19.508 38.1754 20.0694 37.7544 20.0694 36.9123L20.2098 36.3509L20.3501 35.9298C20.2098 35.9298 20.4905 35.5088 20.2098 35.5088Z" fill="#F3CC23"></path><path fill-rule="evenodd" clip-rule="evenodd" d="M13.3327 34.807V35.3684L13.1924 35.5088C13.1924 35.5088 13.1924 36.3509 13.1924 36.4912C13.1924 36.6316 13.6134 36.6316 13.6134 36.0702C13.6134 35.5088 13.7538 35.5088 13.7538 35.5088C13.7538 35.5088 13.7538 34.386 13.6134 34.2456C13.6134 34.2456 13.1924 34.1053 13.3327 34.807Z" fill="#F3CC23"></path><path fill-rule="evenodd" clip-rule="evenodd" d="M6.1748 56H8.28007L8.13972 59.9298L10.1046 56H12.2099L10.245 60.3509L12.4906 65.8246H10.245L8.98182 62.4561L8.28007 63.2982V65.8246H6.1748" fill="#003891"></path><path fill-rule="evenodd" clip-rule="evenodd" d="M13.333 56H18.6663V57.9649H15.4383V59.9298H18.3856V61.7544H15.5786V64H18.6663V65.8246H13.333" fill="#003891"></path><path fill-rule="evenodd" clip-rule="evenodd" d="M47.5781 56H53.4729V57.9649H51.6483V65.9649H49.4027V57.9649H47.5781" fill="#003891"></path><path fill-rule="evenodd" clip-rule="evenodd" d="M68.7715 56H71.0171V64H73.8241V65.8246H68.7715" fill="#003891"></path><path fill-rule="evenodd" clip-rule="evenodd" d="M30.034 65.8246C27.0866 65.8246 26.9463 64.1404 26.9463 61.0526C26.9463 56.9825 27.5077 56 30.034 55.8596C33.2621 55.8596 33.1217 57.9649 33.1217 60.9123C33.2621 64.5614 32.841 65.8246 30.034 65.8246ZM30.034 64.2807C30.7358 64.2807 30.8761 63.1579 30.8761 60.9123C30.8761 59.2281 31.0165 57.5439 30.034 57.5439C29.0516 57.5439 29.1919 59.2281 29.1919 61.0526C29.1919 63.1579 29.1919 64.2807 30.034 64.2807Z" fill="#003891"></path><path fill-rule="evenodd" clip-rule="evenodd" d="M64.701 65.8246C61.7536 65.8246 61.6133 64.1404 61.6133 61.0526C61.6133 56.9825 62.1747 56 64.701 55.8596C67.9291 55.8596 67.7887 57.9649 67.7887 60.9123C67.7887 64.5614 67.3677 65.8246 64.701 65.8246ZM64.701 64.2807C65.4028 64.2807 65.5431 63.1579 65.5431 60.9123C65.5431 59.2281 65.6835 57.5439 64.701 57.5439C63.7185 57.5439 63.8589 59.2281 63.8589 61.0526C63.8589 63.1579 63.8589 64.2807 64.701 64.2807Z" fill="#003891"></path><path fill-rule="evenodd" clip-rule="evenodd" d="M34.3857 56V65.8246H36.491V62.0351C36.491 62.0351 37.0524 62.0351 37.7542 62.0351C39.7191 61.8947 40.4208 61.3333 40.4208 59.0877C40.4208 56.9825 39.0173 56.2807 37.4735 56.1403C36.491 56 34.3857 56 34.3857 56ZM37.1928 60.3509C37.0524 60.3509 36.7717 60.3509 36.6314 60.3509V57.9649C36.6314 57.9649 36.9121 57.9649 37.1928 57.9649C37.8945 57.9649 38.3156 58.386 38.3156 59.2281C38.3156 59.7895 37.8945 60.3509 37.1928 60.3509Z" fill="#003891"></path><path fill-rule="evenodd" clip-rule="evenodd" d="M25.9645 63.7193C25.9645 60.7719 24.561 60.9123 24.561 60.9123C25.4031 60.4912 25.8241 60.4912 25.8241 58.386C25.8241 56.7018 24.8417 56 23.5785 56C22.175 56 20.7715 56 19.7891 56V65.8246H22.0347V62.0351H22.7364C23.7189 62.0351 23.7189 63.1579 23.7189 63.1579L23.8592 65.8246H26.1049C26.1049 65.8246 25.9645 65.5439 25.9645 63.7193ZM22.5961 60.3509C22.4557 60.3509 22.175 60.3509 22.0347 60.3509V57.9649C22.0347 57.9649 22.3154 57.9649 22.5961 57.9649C23.2978 57.9649 23.7189 58.386 23.7189 59.2281C23.7189 59.7895 23.2978 60.3509 22.5961 60.3509Z" fill="#003891"></path><path fill-rule="evenodd" clip-rule="evenodd" d="M41.4033 56H46.7367V57.9649H43.5086V59.9298H46.4559V61.7544H43.6489V64H46.7367V65.8246H41.4033" fill="#003891"></path><path fill-rule="evenodd" clip-rule="evenodd" d="M60.3502 63.7193C60.3502 60.7719 58.9467 60.9123 58.9467 60.9123C59.7888 60.4912 60.2099 60.4912 60.2099 58.386C60.2099 55.1579 56.1397 56 54.1748 55.8597V65.6842H56.4204V61.8947H57.1222C58.1046 61.8947 58.1046 63.0176 58.1046 63.0176L58.245 65.6842H60.4906C60.4906 65.6842 60.2099 65.4035 60.3502 63.7193ZM56.8415 60.2105C56.7011 60.2105 56.4204 60.2105 56.2801 60.2105V57.8246C56.2801 57.8246 56.5608 57.8246 56.8415 57.8246C57.5432 57.8246 57.9643 58.2456 57.9643 59.0877C58.1046 59.7895 57.6836 60.2105 56.8415 60.2105Z" fill="#2E3D80"></path></g></g><defs><clipPath id="clip0_2668_1101"><rect width="80" height="80" fill="white"></rect></clipPath></defs></svg>